# Blender 5.0.0
# www.blender.org
mtllib rat.mtl
o Rat_reference
v 7.112909 61.386971 -0.070379
v 0.000000 62.655758 1.357480
v 1.198418 59.272095 4.858750
v 7.183264 56.244728 -6.953889
v 6.735523 63.256771 -3.756361
v 7.535561 55.870029 -3.588960
v 3.632244 62.066917 2.025980
v 0.000000 60.500164 2.751054
v 3.581357 60.537376 5.488055
v 0.000000 59.368279 5.538399
v 3.015968 60.538570 9.123955
v 0.000000 59.342201 8.929962
v 2.591876 61.911545 12.268883
v 0.000000 61.259148 12.319500
v 1.389626 63.616570 16.623793
v 0.000000 62.584599 16.368645
v -0.000000 64.496193 18.300083
v -0.000000 65.709534 18.800508
v 1.974147 65.272812 17.057840
v -0.000000 66.763214 18.850674
v 1.529689 66.837585 17.104147
v 3.784886 64.197227 12.321138
v 5.183854 63.720806 9.058729
v 3.831303 68.903221 5.012954
v 5.873445 64.334213 6.169877
v 5.760051 65.451904 1.282410
v 3.100800 67.989365 9.403551
v 2.233598 67.533951 12.681608
v -0.000000 68.577682 17.108723
v -0.000000 69.959030 13.176418
v -0.000000 71.248116 9.512436
v -0.000000 71.943108 5.348922
v 2.364891 71.445831 2.336435
v 3.727598 69.593910 3.462282
v 4.614393 69.490097 0.340240
v 5.350234 63.372692 -6.699164
v 3.053477 63.410492 -8.580898
v -3.100800 67.989365 9.403553
v -1.529689 66.837585 17.104147
v -2.233598 67.533951 12.681606
v -3.784886 64.197227 12.321138
v -1.974147 65.272812 17.057842
v -1.389626 63.616570 16.623793
v 0.000000 63.849567 18.005587
v -2.591876 61.911545 12.268879
v -5.183854 63.720806 9.058731
v -3.831303 68.903221 5.012954
v -0.000000 72.132545 0.407226
v 0.000000 63.501282 -9.419516
v 3.983059 55.998642 -9.665474
v -2.364891 71.445831 2.336436
v -3.015968 60.538570 9.123953
v -5.873445 64.334213 6.169877
v -3.581357 60.537376 5.488055
v 7.622394 50.311172 -7.187775
v 6.356998 49.838440 -2.829792
v 4.850503 50.191719 -9.978489
v 0.000000 40.111992 8.994978
v -6.166198 44.035011 4.822493
v -7.775670 38.835968 6.953272
v -9.307729 44.135212 -0.676642
v -6.357016 49.838440 -2.829789
v -7.622395 50.311172 -7.187775
v -7.183264 56.244724 -6.953896
v -3.983059 55.998646 -9.665478
v -3.053477 63.410492 -8.580902
v 0.000000 55.524773 -10.956579
v 0.000000 50.297417 -11.413588
v 4.970675 43.522987 -11.562504
v 8.338256 43.553474 -7.955305
v 9.307729 44.135212 -0.676642
v 6.225793 48.116791 2.708757
v -7.535572 55.870037 -3.588961
v -5.350233 63.372692 -6.699168
v -6.735523 63.256771 -3.756364
v -7.112912 61.386963 -0.070379
v -4.614393 69.490097 0.340240
v -5.760051 65.451904 1.282410
v -3.632244 62.066917 2.025981
v -3.727598 69.593910 3.462283
v -0.097040 52.449898 6.475039
v 0.000000 45.627998 8.534248
v 6.166198 44.035011 4.822492
v 7.775674 38.835968 6.953274
v 7.973081 29.762877 6.936944
v 0.000000 34.471931 8.812871
v 4.070199 25.913332 6.227485
v -0.001830 26.060190 7.133395
v 0.021847 20.480171 4.091647
v 6.144121 18.333332 3.014529
v 0.730698 17.446489 -4.167435
v -0.000000 15.234550 -9.008327
v 3.902584 21.371817 -9.347784
v 3.317647 20.070877 -10.381781
v 8.427702 25.688719 -8.865654
v 4.335096 22.326351 -13.614082
v 5.074349 30.635983 -15.573215
v -0.000000 31.148176 -17.302448
v 9.620639 31.160789 -10.484092
v 10.045513 24.020670 -6.301003
v 11.710075 30.030212 0.426876
v 11.259468 37.644424 0.865778
v 9.509269 37.724155 -8.905990
v 5.471550 37.638859 -13.472954
v 0.000000 38.133759 -15.586966
v 0.000000 43.563908 -13.344431
v -4.970675 43.522987 -11.562506
v -4.850502 50.191719 -9.978491
v -8.338257 43.553474 -7.955307
v 11.150779 23.589308 1.115597
v -5.471550 37.638859 -13.472956
v -9.509269 37.724155 -8.905990
v -11.259465 37.644424 0.865779
v -7.973081 29.762878 6.936944
v -4.070195 25.913330 6.227484
v -0.730706 17.446499 -4.167428
v -3.902594 21.371819 -9.347775
v -3.317646 20.134995 -10.422740
v -10.045513 24.020657 -6.300994
v -0.000000 22.487637 -11.104048
v -0.000000 21.603546 -14.472100
v -5.074349 30.635983 -15.573217
v -9.620639 31.160789 -10.484091
v -11.710073 30.030214 0.426877
v -8.427702 25.688719 -8.865654
v -4.335096 22.326351 -13.614083
v -11.150778 23.589298 1.115598
v -6.144126 18.333323 3.014533
v 19.687389 42.686852 -1.516784
v 19.393942 42.509773 -2.975533
v 21.495247 40.846077 -4.813167
v 21.903042 40.779732 -0.035901
v 25.189938 38.119095 0.248179
v 24.987743 38.000137 -4.850029
v 25.111439 40.701668 -1.323039
v 23.444492 42.218735 -2.725281
v 25.309761 40.684982 -3.260293
v 19.361454 44.088051 -0.496338
v 10.455982 52.577721 -5.062697
v 13.316742 54.699356 -0.098385
v 12.080069 49.435856 2.858256
v 15.045616 52.471394 -0.865844
v 13.969794 49.096416 1.889097
v 16.987473 50.301792 -1.332503
v 15.576926 47.722816 1.129130
v 20.480600 45.498497 -1.953997
v 19.329731 44.648445 -3.436312
v 14.807154 49.407257 -4.718124
v 13.097558 50.828907 -4.768580
v 12.132074 46.957657 -3.912654
v 18.428116 43.445602 -2.934418
v 18.077644 43.158745 -1.373082
v 12.025758 46.078529 -1.027138
v 10.640576 46.208900 -0.612284
v 10.723969 47.229080 -3.884481
v 8.591427 48.185436 -3.834996
v 9.143376 46.547539 0.034953
v 2.029398 18.757914 -19.329166
v -0.000000 31.950388 -20.048931
v -0.000000 22.135170 -17.953453
v 1.748565 31.983469 -21.793800
v -0.000000 44.095764 -17.985842
v 1.610143 44.461407 -19.388062
v -1.748565 31.983469 -21.793800
v -2.029398 18.757914 -19.329166
v -1.610143 44.461407 -19.388062
v -0.000000 54.834324 -18.081703
v 1.203307 54.127987 -16.580576
v -0.000000 45.365387 -21.287283
v -0.000000 32.109417 -23.806768
v -0.000000 16.196943 -20.485001
v -1.203307 54.127987 -16.580578
v -0.000000 53.652302 -15.333175
v -0.000000 63.792641 -11.408596
v 0.620021 64.379173 -12.461133
v -0.000000 73.139389 -8.938376
v -0.000000 64.605133 -13.629934
v -0.620021 64.379173 -12.461134
v -5.179442 0.613893 -5.588590
v -3.962305 1.136594 -4.044760
v -3.446678 0.215496 -2.681458
v -3.642243 4.331239 -6.609293
v -7.372087 0.215496 -2.346987
v -6.722889 1.222705 -4.001571
v -4.854829 4.493640 -5.015176
v -5.783024 4.304648 -6.464725
v -4.653488 4.117225 -7.701406
v -4.672351 7.873186 -6.756388
v -3.336335 7.262162 -5.290482
v -2.773530 8.551251 -4.701909
v -6.127276 7.674277 -5.801205
v -5.850280 7.239365 -4.124811
v -4.305195 7.091877 -3.748651
v -5.185616 2.205157 -3.197488
v -4.190389 8.384658 -1.758097
v -7.023488 9.689089 -2.554408
v -7.461996 10.392254 -5.286136
v -4.280683 9.885956 -7.272690
v -3.950817 14.427703 -9.047180
v -0.522378 11.736571 -5.094021
v -8.222864 15.256718 -6.745769
v -8.772894 14.533702 -0.689424
v -4.450634 12.289672 0.361309
v 7.023476 9.689096 -2.554410
v 4.190372 8.384665 -1.758100
v 4.305180 7.091885 -3.748651
v 8.772888 14.533716 -0.689428
v 3.642233 4.331241 -6.609294
v 5.185604 2.205151 -3.197479
v 4.854818 4.493645 -5.015172
v 3.336319 7.262173 -5.290482
v 2.773516 8.551259 -4.701910
v 4.450624 12.289678 0.361306
v 3.962292 1.136586 -4.044754
v 0.522367 11.736573 -5.094024
v 5.850266 7.239371 -4.124815
v 7.461977 10.392265 -5.286140
v 8.222852 15.256726 -6.745770
v 3.950807 14.427709 -9.047186
v 4.280665 9.885963 -7.272694
v 4.672337 7.873196 -6.756389
v 4.653471 4.117225 -7.701405
v 5.783011 4.304650 -6.464726
v 6.722879 1.222696 -4.001561
v 6.127258 7.674287 -5.801208
v 5.179435 0.613885 -5.588583
v 7.372076 0.215488 -2.346982
v 3.446667 0.215488 -2.681450
v -5.767559 73.553635 -1.753874
v -3.755980 73.911858 -0.188951
v -7.491047 71.838249 -2.596993
v -7.763269 68.918266 -1.648847
v -6.897198 68.134056 -0.445841
v -12.025783 46.078514 -1.027124
v -19.361477 44.088032 -0.496334
v -18.077665 43.158737 -1.373077
v -20.324266 42.580284 -0.704870
v -20.030872 42.403206 -2.163618
v -18.428116 43.445568 -2.934418
v -21.597324 41.188305 -4.001248
v -19.329754 44.648438 -3.436311
v -23.546562 42.560978 -1.913368
v -20.480621 45.498482 -1.953998
v -16.987499 50.301785 -1.332497
v -14.807175 49.407246 -4.718121
v -13.097590 50.828880 -4.768577
v -10.723996 47.229053 -3.884472
v -8.591480 48.185444 -3.834981
v -9.143402 46.547527 0.034964
v -10.640620 46.208927 -0.612276
v -12.132096 46.957645 -3.912644
v -22.005131 41.121941 0.776018
v -15.576948 47.722809 1.129135
v -15.045640 52.471378 -0.865836
v -10.456015 52.577702 -5.062688
v -6.225803 48.116791 2.708766
v -12.080107 49.435825 2.858268
v -13.969827 49.096397 1.889107
v -13.316771 54.699341 -0.098376
v -25.089836 38.342346 -4.038116
v -25.292025 38.461311 1.060092
v 5.298527 0.215488 -2.653945
v 7.407839 0.215489 3.809620
v 3.112714 0.215491 3.725027
v -5.298541 0.215496 -2.653955
v -7.407853 0.215497 3.809605
v -3.112731 0.215496 3.725017
v 3.755980 73.911858 -0.188951
v 5.767559 73.553635 -1.753876
v 7.491046 71.838249 -2.596993
v 7.763269 68.918266 -1.648847
v 6.897198 68.134056 -0.445841
v -25.213480 41.043877 -0.511126
v -25.411871 41.027187 -2.448375
v -5.228227 2.093553 -1.324680
v -6.150307 1.962199 2.760312
v -4.589658 1.897768 2.712047
v 4.589643 1.897761 2.712059
v 6.150292 1.962192 2.760319
v 5.228216 2.093547 -1.324672
vn 0.6977 0.6114 0.3735
vn -0.8972 -0.0478 -0.4390
vn 0.0717 0.4606 0.8847
vn 0.8746 0.1393 -0.4645
vn 0.8712 0.4745 -0.1261
vn 0.7476 0.2951 -0.5950
vn 0.5037 -0.8550 -0.1238
vn -0.0054 -0.8122 -0.5834
vn 0.6082 -0.7842 -0.1228
vn 0.0052 -0.9832 -0.1825
vn 0.5828 -0.7750 0.2442
vn 0.0035 -0.9733 0.2294
vn 0.5900 -0.6914 0.4169
vn 0.0048 -0.9077 0.4195
vn 0.6152 -0.5850 0.5285
vn 0.0542 -0.8723 0.4859
vn 0.0417 -0.4475 0.8933
vn -0.0244 -0.1723 0.9847
vn 0.8259 -0.0955 0.5556
vn -0.0279 0.3169 0.9480
vn 0.7942 0.4228 0.4364
vn 0.9275 -0.0588 0.3691
vn 0.9464 -0.1241 0.2982
vn 0.7975 0.5633 0.2160
vn 0.9947 -0.0587 0.0843
vn 0.9978 0.0038 0.0659
vn 0.8010 0.5362 0.2662
vn 0.8166 0.5178 0.2550
vn 0.0017 0.8696 0.4938
vn -0.0071 0.9406 0.3394
vn -0.0255 0.9621 0.2714
vn -0.0624 0.9817 0.1797
vn 0.3219 0.9445 0.0661
vn 0.7326 0.5705 0.3713
vn -0.0553 0.0401 -0.9977
vn 0.7029 0.4453 -0.5547
vn 0.3898 0.4883 -0.7808
vn -0.7964 0.5487 0.2544
vn -0.8052 0.3942 0.4430
vn -0.8186 0.5158 0.2527
vn -0.9253 -0.0315 0.3778
vn -0.8392 -0.0573 0.5409
vn -0.6375 -0.5598 0.5294
vn 0.4048 -0.5122 0.7575
vn -0.5786 -0.7080 0.4048
vn -0.9545 -0.1141 0.2755
vn -0.7529 0.6123 0.2413
vn 0.0014 0.9294 -0.3690
vn 0.0141 0.4936 -0.8696
vn 0.4637 0.1508 -0.8731
vn 0.1180 0.9120 0.3929
vn -0.5790 -0.7752 0.2526
vn -0.9908 -0.0574 0.1226
vn -0.6071 -0.7854 -0.1207
vn 0.9619 0.0657 -0.2652
vn 0.7693 -0.2249 -0.5981
vn 0.5122 0.1561 -0.8446
vn -0.0560 0.0790 0.9953
vn -0.6723 0.3633 0.6450
vn -0.6051 0.2153 0.7665
vn -0.9031 0.3851 0.1899
vn -0.8277 -0.0204 -0.5608
vn -0.9363 0.1869 -0.2973
vn -0.8997 0.1194 -0.4199
vn -0.4747 0.1430 -0.8684
vn -0.4126 0.4712 -0.7796
vn 0.0030 0.1340 -0.9910
vn 0.0072 0.1796 -0.9837
vn 0.5253 0.2597 -0.8103
vn 0.8895 0.2408 -0.3885
vn 0.9247 0.3582 0.1291
vn 0.5339 -0.2377 0.8115
vn -0.8028 0.2530 -0.5399
vn -0.7039 0.4341 -0.5622
vn -0.9325 0.2804 -0.2278
vn -0.8535 0.2976 0.4277
vn 0.1488 0.0915 -0.9846
vn -0.9845 0.0951 0.1473
vn -0.4008 -0.9133 -0.0729
vn -0.7326 0.5705 0.3713
vn -0.0049 0.1811 0.9835
vn -0.0196 0.2490 0.9683
vn 0.6892 0.3864 0.6129
vn 0.6393 0.1955 0.7437
vn 0.5337 -0.1456 0.8331
vn -0.0070 -0.0865 0.9962
vn 0.1413 -0.3308 0.9331
vn 0.0185 -0.3450 0.9384
vn -0.3303 -0.7015 0.6315
vn 0.1477 -0.5077 0.8488
vn -0.3395 -0.8698 0.3581
vn -0.0111 -0.9911 0.1323
vn 0.7188 -0.6419 -0.2669
vn 0.8369 -0.5386 -0.0973
vn 0.8187 -0.3138 -0.4808
vn 0.4671 -0.6260 -0.6245
vn 0.5537 -0.0397 -0.8318
vn -0.0079 0.0011 -1.0000
vn 0.8800 -0.0796 -0.4683
vn 0.8759 -0.0989 -0.4722
vn 0.9904 -0.0117 0.1375
vn 0.9668 0.1794 0.1818
vn 0.8919 0.1785 -0.4154
vn 0.5632 0.2519 -0.7870
vn 0.0014 0.3079 -0.9514
vn 0.0117 0.3208 -0.9471
vn -0.5401 0.2575 -0.8013
vn -0.5276 0.1661 -0.8331
vn -0.8787 0.2047 -0.4312
vn 0.9221 -0.2290 0.3121
vn -0.5640 0.2478 -0.7877
vn -0.8894 0.1813 -0.4195
vn -0.9691 0.1681 0.1804
vn -0.5679 -0.1725 0.8049
vn -0.1475 -0.4391 0.8863
vn 0.9987 0.0502 -0.0066
vn -0.3655 -0.9307 -0.0146
vn -0.8061 -0.5879 -0.0679
vn -0.9127 0.1484 -0.3807
vn 0.8264 -0.3617 -0.4316
vn 0.1017 -0.7877 -0.6076
vn -0.5324 -0.0284 -0.8460
vn -0.8888 -0.0617 -0.4542
vn -0.9834 -0.0811 0.1624
vn -0.8539 -0.2946 -0.4289
vn -0.5332 -0.5463 -0.6459
vn -0.8546 -0.0865 0.5120
vn -0.0439 -0.4816 0.8753
vn -0.4753 -0.8523 -0.2184
vn -0.7160 -0.6502 -0.2539
vn -0.3687 -0.2676 -0.8902
vn -0.2935 -0.2347 0.9267
vn 0.3780 -0.6107 0.6958
vn 0.3295 -0.6647 -0.6705
vn 0.7656 0.5041 0.3997
vn 0.5669 0.8142 -0.1253
vn 0.8500 0.4080 -0.3331
vn 0.1990 0.0196 0.9798
vn 0.0673 0.2597 -0.9633
vn 0.7444 0.6303 0.2204
vn 0.3654 -0.2194 0.9046
vn 0.7677 0.6333 0.0983
vn 0.3871 -0.0753 0.9189
vn 0.7884 0.6077 0.0960
vn 0.3009 -0.1513 0.9416
vn 0.7993 0.5955 0.0803
vn 0.2120 0.1584 -0.9644
vn 0.3158 0.2169 -0.9237
vn 0.2892 0.2831 -0.9144
vn -0.1949 -0.6195 -0.7604
vn -0.3614 -0.6740 -0.6443
vn -0.4136 -0.8596 0.2999
vn -0.1904 -0.9673 0.1673
vn -0.1275 -0.9737 0.1887
vn -0.2212 -0.6659 -0.7125
vn -0.4665 -0.5353 -0.7041
vn -0.2548 -0.9515 0.1726
vn 0.9319 -0.1691 -0.3209
vn 0.0022 0.0207 0.9998
vn -0.0401 0.7107 0.7024
vn 0.9988 0.0032 -0.0488
vn -0.0013 -0.2144 0.9767
vn 0.9979 -0.0031 0.0648
vn -0.9989 0.0102 -0.0449
vn -0.9438 -0.1560 -0.2915
vn -0.9975 0.0087 0.0706
vn 0.0016 0.3776 -0.9260
vn 0.9989 0.0251 0.0391
vn 0.0002 0.2652 -0.9642
vn 0.0054 0.0085 -0.9999
vn 0.0064 -0.7895 -0.6138
vn -0.9988 0.0183 0.0465
vn -0.0085 -0.2963 0.9551
vn -0.0083 -0.2942 0.9557
vn 0.9985 0.0535 0.0115
vn -0.0000 0.9282 0.3720
vn 0.0056 0.4551 -0.8904
vn -0.9988 0.0464 0.0180
vn -0.0144 -0.7271 -0.6864
vn 0.9872 0.0656 -0.1453
vn 0.8907 -0.4448 -0.0941
vn 0.9677 -0.1027 -0.2301
vn -0.9084 -0.4032 -0.1110
vn -0.9592 0.1505 -0.2395
vn 0.0418 0.0403 0.9983
vn -0.9549 -0.0442 -0.2935
vn 0.0363 -0.1738 -0.9841
vn 0.1134 -0.0073 -0.9935
vn 0.9624 -0.2354 -0.1358
vn 0.8717 -0.4765 -0.1145
vn -0.8777 -0.1605 -0.4515
vn -0.7123 -0.5219 0.4693
vn 0.3429 -0.6881 0.6395
vn 0.0733 0.9040 0.4213
vn 0.2315 -0.6351 0.7369
vn -0.7688 -0.4746 0.4287
vn -0.8980 -0.2849 -0.3354
vn 0.1753 -0.3346 -0.9259
vn 0.1879 -0.1697 -0.9674
vn 0.9496 -0.2805 -0.1400
vn -0.7966 -0.2129 -0.5659
vn -0.8067 -0.3585 0.4699
vn 0.2615 -0.3415 0.9028
vn 0.7317 -0.5196 0.4411
vn -0.2767 -0.6301 0.7256
vn -0.3231 -0.6317 0.7046
vn 0.8326 -0.3762 0.4066
vn -0.9609 -0.1151 -0.2518
vn -0.0652 0.9188 0.3892
vn 0.0623 0.0321 0.9975
vn -0.9596 -0.2595 -0.1085
vn -0.8902 -0.4555 -0.0005
vn -0.2800 -0.3837 0.8800
vn -0.9849 0.0763 -0.1556
vn -0.9489 -0.3027 -0.0894
vn 0.6918 -0.5357 0.4841
vn 0.8583 -0.3305 -0.3925
vn 0.7928 -0.1956 -0.5773
vn -0.1321 -0.1872 -0.9734
vn -0.0886 -0.3464 -0.9339
vn -0.0583 -0.0712 -0.9958
vn -0.0366 -0.1597 -0.9865
vn 0.9628 0.0187 -0.2697
vn 0.9554 0.1653 -0.2448
vn 0.8654 -0.2317 -0.4442
vn 0.0048 -0.7179 -0.6961
vn 0.9153 -0.3963 -0.0721
vn -0.8886 -0.4465 -0.1049
vn -0.0860 0.8614 -0.5006
vn 0.4076 0.8843 -0.2277
vn -0.6129 0.3184 -0.7231
vn -0.7189 -0.4715 -0.5108
vn -0.3789 -0.9254 0.0002
vn 0.1967 -0.9496 0.2441
vn -0.1251 -0.0105 0.9921
vn 0.4110 -0.8451 0.3420
vn 0.6649 -0.6522 0.3640
vn 0.5250 -0.8491 0.0580
vn 0.4056 -0.6537 -0.6388
vn 0.2319 -0.3706 -0.8994
vn -0.2315 0.1794 -0.9561
vn -0.5889 0.8041 -0.0813
vn -0.7630 0.6460 0.0225
vn -0.7910 0.6055 0.0876
vn -0.3329 0.2143 -0.9183
vn -0.2813 0.2974 -0.9124
vn 0.2258 -0.6539 -0.7221
vn 0.4528 -0.5338 -0.7141
vn 0.2772 -0.9354 0.2197
vn 0.0895 -0.9771 0.1929
vn 0.1849 -0.6341 -0.7508
vn 0.2822 -0.1539 0.9469
vn -0.2727 -0.1496 0.9504
vn -0.7760 0.6280 0.0588
vn -0.0788 0.2904 -0.9536
vn -0.8743 0.3077 0.3753
vn -0.3273 -0.2448 0.9127
vn -0.4179 -0.1413 0.8974
vn -0.7171 0.6714 0.1870
vn -0.3052 -0.6415 -0.7038
vn -0.3456 -0.5672 0.7475
vn 0.0061 -0.9975 -0.0705
vn 0.7119 -0.2829 0.6428
vn -0.7252 -0.2751 0.6312
vn -0.0061 -0.9975 -0.0705
vn -0.6843 -0.2979 0.6656
vn 0.7369 -0.2726 0.6186
vn -0.4013 0.9040 -0.1477
vn 0.1688 0.8230 -0.5424
vn 0.6129 0.3184 -0.7231
vn 0.7189 -0.4715 -0.5108
vn 0.3789 -0.9254 0.0002
vn -0.5589 0.5775 0.5951
vn -0.7776 0.4643 -0.4239
vn 0.0687 0.9976 -0.0078
vn -0.3508 0.8477 0.3980
vn 0.3863 0.8462 0.3669
vn -0.3614 0.8449 0.3944
vn 0.4086 0.8360 0.3662
vn -0.0285 0.9995 0.0094
vt 0.220208 0.127485
vt 0.145904 0.078014
vt 0.192283 0.029733
vt 0.298108 0.220899
vt 0.219217 0.192041
vt 0.300293 0.158140
vt 0.134853 0.162919
vt 0.096197 0.125779
vt 0.097545 0.179382
vt 0.068347 0.145092
vt 0.064548 0.200827
vt 0.038091 0.175132
vt 0.044185 0.230507
vt 0.017913 0.216700
vt 0.017684 0.271843
vt 0.002193 0.262089
vt 0.004202 0.292320
vt 0.009042 0.306032
vt 0.027561 0.285675
vt 0.016776 0.315744
vt 0.034672 0.298308
vt 0.061633 0.250898
vt 0.089675 0.230017
vt 0.147714 0.264661
vt 0.118404 0.221330
vt 0.166435 0.209166
vt 0.102871 0.273899
vt 0.072301 0.285008
vt 0.042167 0.314831
vt 0.076687 0.315504
vt 0.111430 0.314845
vt 0.151832 0.315003
vt 0.181613 0.288489
vt 0.165483 0.267444
vt 0.197662 0.253728
vt 0.234619 0.240150
vt 0.242259 0.279087
vt 0.104187 0.355408
vt 0.035509 0.332446
vt 0.009000 0.325907
vt 0.073597 0.345383
vt 0.064698 0.379790
vt 0.029390 0.345599
vt 0.020638 0.359449
vt 0.004372 0.341150
vt 0.006225 0.349880
vt 0.002193 0.370574
vt 0.048916 0.400898
vt 0.092860 0.398514
vt 0.147471 0.363926
vt 0.191506 0.315853
vt 0.243244 0.315959
vt 0.297661 0.269280
vt 0.181748 0.342126
vt 0.023630 0.417627
vt 0.071408 0.428488
vt 0.049662 0.456413
vt 0.119886 0.406770
vt 0.103167 0.446719
vt 0.081168 0.479003
vt 0.365616 0.225309
vt 0.381867 0.160693
vt 0.363214 0.267502
vt 0.475724 0.615372
vt 0.431638 0.542061
vt 0.467551 0.539268
vt 0.421436 0.478029
vt 0.366254 0.474798
vt 0.355856 0.412793
vt 0.291757 0.412127
vt 0.294455 0.364949
vt 0.240685 0.352657
vt 0.300530 0.317286
vt 0.357920 0.320293
vt 0.429505 0.281420
vt 0.433730 0.238985
vt 0.441575 0.166310
vt 0.432119 0.083896
vt 0.288872 0.471301
vt 0.231767 0.390434
vt 0.215786 0.434906
vt 0.212833 0.493423
vt 0.197228 0.376936
vt 0.166427 0.416701
vt 0.136808 0.458335
vt 0.185229 0.576308
vt 0.147204 0.533136
vt 0.104895 0.492175
vt 0.165295 0.361891
vt 0.413926 0.001911
vt 0.474181 0.012687
vt 0.462679 0.098379
vt 0.502011 0.109166
vt 0.530796 0.027195
vt 0.535983 0.119650
vt 0.577443 0.043950
vt 0.598872 0.107540
vt 0.624901 0.070920
vt 0.687408 0.125075
vt 0.576653 0.139680
vt 0.661275 0.153930
vt 0.724778 0.229336
vt 0.659880 0.233169
vt 0.663890 0.295234
vt 0.577119 0.267885
vt 0.577852 0.307607
vt 0.525110 0.300048
vt 0.519338 0.331043
vt 0.528175 0.258731
vt 0.591356 0.232367
vt 0.519946 0.196034
vt 0.483928 0.179776
vt 0.482354 0.247820
vt 0.477595 0.289564
vt 0.472421 0.327055
vt 0.426719 0.323832
vt 0.423662 0.366606
vt 0.356766 0.372043
vt 0.422788 0.408155
vt 0.548537 0.184859
vt 0.473391 0.365282
vt 0.471896 0.407177
vt 0.463233 0.472028
vt 0.500365 0.535856
vt 0.520981 0.611484
vt 0.569117 0.601128
vt 0.554701 0.560108
vt 0.643612 0.557835
vt 0.619137 0.529345
vt 0.640188 0.453635
vt 0.697424 0.469455
vt 0.658308 0.390329
vt 0.575429 0.436317
vt 0.643078 0.343451
vt 0.578409 0.336210
vt 0.521064 0.361755
vt 0.517321 0.403194
vt 0.500294 0.462294
vt 0.564532 0.401443
vt 0.571537 0.364603
vt 0.526536 0.475255
vt 0.540666 0.525165
vt 0.849050 0.941095
vt 0.849999 0.955331
vt 0.831017 0.970897
vt 0.827979 0.925339
vt 0.787737 0.922302
vt 0.788117 0.970897
vt 0.503437 0.971624
vt 0.528060 0.949350
vt 0.540410 0.972125
vt 0.509248 0.927747
vt 0.560378 0.924886
vt 0.543977 0.949541
vt 0.575740 0.972126
vt 0.784114 0.691584
vt 0.813989 0.686855
vt 0.811003 0.719005
vt 0.926098 0.770181
vt 0.910993 0.841381
vt 0.867600 0.801802
vt 0.840630 0.851408
vt 0.784114 0.822938
vt 0.805235 0.796423
vt 0.863240 0.778155
vt 0.812515 0.780237
vt 0.858224 0.758263
vt 0.815964 0.762951
vt 0.829813 0.706309
vt 0.849903 0.694146
vt 0.812509 0.660338
vt 0.832343 0.652155
vt 0.898118 0.739422
vt 0.908351 0.749401
vt 0.923406 0.715381
vt 0.860211 0.680756
vt 0.841528 0.642701
vt 0.869649 0.667117
vt 0.848420 0.620163
vt 0.872452 0.649527
vt 0.919556 0.653147
vt 0.931833 0.690766
vt 0.947791 0.694812
vt 0.936487 0.719592
vt 0.954514 0.732442
vt 0.962486 0.812098
vt 0.937000 0.652713
vt 0.964909 0.695787
vt 0.953994 0.652968
vt 1.000466 0.766952
vt 0.987041 0.702152
vt 0.986788 0.640429
vt 0.118677 0.615314
vt 0.208955 0.664222
vt 0.105949 0.646654
vt 0.217188 0.639949
vt 0.312144 0.681816
vt 0.317500 0.662122
vt 0.208673 0.690092
vt 0.108091 0.680181
vt 0.310622 0.702250
vt 0.415779 0.662832
vt 0.408652 0.680912
vt 0.328665 0.639637
vt 0.227662 0.614331
vt 0.136698 0.580565
vt 0.027638 0.591712
vt 0.012257 0.630996
vt 0.013925 0.673656
vt 0.029881 0.739186
vt 0.112988 0.719774
vt 0.210074 0.717540
vt 0.313700 0.727156
vt 0.402822 0.714803
vt 0.064912 0.533438
vt 0.404373 0.697736
vt 0.502678 0.714394
vt 0.507239 0.702719
vt 0.590963 0.729616
vt 0.509087 0.690376
vt 0.503033 0.726897
vt 0.500646 0.739186
vt 0.403547 0.734160
vt 0.824300 0.019670
vt 0.806381 0.018070
vt 0.797674 0.005550
vt 0.811712 0.053319
vt 0.851636 -0.000498
vt 0.843621 0.015218
vt 0.859508 0.055149
vt 0.838387 0.054063
vt 0.823889 0.053799
vt 0.816374 0.091521
vt 0.796981 0.078155
vt 0.785074 0.086588
vt 0.839749 0.096258
vt 0.862589 0.095333
vt 0.880729 0.089065
vt 0.856347 0.019556
vt 0.868630 0.015147
vt 0.884024 0.049747
vt 0.890005 0.074195
vt 0.892354 0.111311
vt 0.869372 0.129180
vt 0.842660 0.131565
vt 0.804691 0.114596
vt 0.787250 0.145554
vt 0.752234 0.087298
vt 0.726461 0.094793
vt 0.756438 0.176996
vt 0.816945 0.225217
vt 0.833681 0.172573
vt 0.883438 0.175482
vt 0.900043 0.225217
vt 0.916152 0.146343
vt 0.932019 0.088000
vt 0.902767 0.081093
vt 0.935768 0.175358
vt 0.955869 0.091461
vt 0.671369 0.773205
vt 0.642472 0.765680
vt 0.646326 0.738404
vt 0.675941 0.820987
vt 0.619103 0.701224
vt 0.637978 0.653348
vt 0.645209 0.692413
vt 0.624851 0.731900
vt 0.620313 0.743829
vt 0.635453 0.806940
vt 0.630401 0.841117
vt 0.681031 0.869112
vt 0.750013 0.838953
vt 0.615858 0.652635
vt 0.595135 0.760809
vt 0.574871 0.774817
vt 0.664125 0.738568
vt 0.695381 0.765228
vt 0.717624 0.798685
vt 0.785026 0.777516
vt 0.748494 0.761341
vt 0.761046 0.701615
vt 0.722234 0.741486
vt 0.733179 0.709322
vt 0.719391 0.705832
vt 0.704958 0.724450
vt 0.690038 0.687318
vt 0.673187 0.690382
vt 0.654365 0.642282
vt 0.684273 0.732934
vt 0.785026 0.699619
vt 0.702290 0.685584
vt 0.709649 0.642579
vt 0.685166 0.644352
vt 0.638161 0.620103
vt 0.721814 0.625699
vt 0.132718 0.951395
vt 0.182755 0.929813
vt 0.168815 0.949969
vt 0.139470 0.917909
vt 0.182755 0.905307
vt 0.159130 0.887896
vt 0.143667 0.891878
vt 0.110752 0.929368
vt 0.132294 0.858112
vt 0.193886 0.867755
vt 0.179413 0.874502
vt 0.200958 0.839272
vt 0.185511 0.820247
vt 0.162032 0.813224
vt 0.132294 0.833734
vt 0.799698 0.374701
vt 0.756682 0.313087
vt 0.774035 0.311489
vt 0.749662 0.282028
vt 0.759576 0.273476
vt 0.788352 0.302405
vt 0.769765 0.253054
vt 0.802166 0.292430
vt 0.795804 0.255435
vt 0.815350 0.272480
vt 0.868446 0.298951
vt 0.848545 0.339439
vt 0.858963 0.349967
vt 0.829413 0.379461
vt 0.842830 0.395770
vt 0.806655 0.408451
vt 0.803999 0.390658
vt 0.824303 0.365531
vt 0.726447 0.289543
vt 0.829450 0.252693
vt 0.801100 0.224258
vt 0.873771 0.261356
vt 0.886984 0.304775
vt 0.878067 0.367180
vt 0.877751 0.438747
vt 0.814723 0.429524
vt 0.752299 0.433781
vt 0.761138 0.400263
vt 0.759553 0.380647
vt 0.759209 0.363000
vt 0.918145 0.401570
vt 0.910056 0.311700
vt 0.888569 0.257780
vt 0.952027 0.355202
vt 0.959921 0.283056
vt 0.904133 0.249165
vt 0.927861 0.224258
vt 0.726482 0.978998
vt 0.762077 0.968164
vt 0.752792 0.978998
vt 0.756196 0.944331
vt 0.721839 0.918641
vt 0.692435 0.957331
vt 0.458230 0.949175
vt 0.455704 0.968972
vt 0.397096 0.970472
vt 0.486399 0.947508
vt 0.458151 0.931542
vt 0.397096 0.929558
vt 0.355046 0.950855
vt 0.383216 0.952522
vt 0.354968 0.968488
vt 0.352521 0.931058
vt 0.293913 0.929558
vt 0.293913 0.970472
vt 0.075591 0.897137
vt 0.055354 0.935287
vt 0.040254 0.904646
vt 0.094302 0.912963
vt 0.100414 0.936695
vt 0.081879 0.959448
vt 0.065911 0.959448
vt 0.024686 0.931353
vt 0.402010 0.550287
vt 0.371500 0.617551
vt 0.426252 0.618769
vt 0.624614 0.973472
vt 0.656280 0.930793
vt 0.658511 0.972781
vt 0.634519 0.948609
vt 0.622248 0.946030
vt 0.599552 0.924881
vt 0.589747 0.973472
vt 0.071465 0.814769
vt 0.087433 0.814769
vt 0.035683 0.849534
vt 0.105877 0.837596
vt 0.099916 0.861367
vt 0.081603 0.877652
vt 0.045984 0.871628
vt 0.392583 0.883811
vt 0.384774 0.847066
vt 0.396689 0.848906
vt 0.415148 0.833477
vt 0.369169 0.828925
vt 0.361195 0.892301
vt 0.372706 0.911045
vt 0.392733 0.903181
vt 0.409440 0.911045
vt 0.419148 0.896299
vt 0.348594 0.839515
vt 0.341859 0.907360
vt 0.325008 0.888645
vt 0.295074 0.901291
vt 0.313282 0.886210
vt 0.319886 0.851305
vt 0.338787 0.824207
vt 0.320886 0.832054
vt 0.302568 0.824207
vt 0.291439 0.841615
s 1
usemtl Rat_Diffuse
f 1/1/1 2/2/2 3/3/3
f 4/4/4 5/5/5 6/6/6
f 6/6/6 5/5/5 1/1/1
f 5/5/5 7/7/7 1/1/1
f 2/2/2 1/1/1 7/7/7
f 7/7/7 8/8/8 2/2/2
f 9/9/9 8/8/8 7/7/7
f 9/9/9 10/10/10 8/8/8
f 11/11/11 10/10/10 9/9/9
f 11/11/11 12/12/12 10/10/10
f 13/13/13 12/12/12 11/11/11
f 13/13/13 14/14/14 12/12/12
f 15/15/15 14/14/14 13/13/13
f 15/15/15 16/16/16 14/14/14
f 17/17/17 16/16/16 15/15/15
f 18/18/18 17/17/17 15/15/15
f 18/18/18 15/15/15 19/19/19
f 20/20/20 18/18/18 19/19/19
f 20/20/20 19/19/19 21/21/21
f 22/22/22 11/11/11 23/23/23
f 22/22/22 13/13/13 11/11/11
f 19/19/19 13/13/13 22/22/22
f 19/19/19 15/15/15 13/13/13
f 24/24/24 25/25/25 26/26/26
f 27/27/27 25/25/25 24/24/24
f 27/27/27 23/23/23 25/25/25
f 28/28/28 23/23/23 27/27/27
f 28/28/28 22/22/22 23/23/23
f 21/21/21 22/22/22 28/28/28
f 21/21/21 19/19/19 22/22/22
f 20/20/20 21/21/21 29/29/29
f 29/29/29 21/21/21 28/28/28
f 29/29/29 28/28/28 30/30/30
f 30/30/30 28/28/28 27/27/27
f 30/30/30 27/27/27 31/31/31
f 31/31/31 27/27/27 24/24/24
f 31/31/31 24/24/24 32/32/32
f 32/32/32 24/24/24 33/33/33
f 24/24/24 34/34/34 33/33/33
f 24/24/24 35/35/35 34/34/34
f 24/24/24 26/26/26 35/35/35
f 36/36/36 35/35/35 26/26/26
f 36/36/36 26/26/26 5/5/5
f 5/5/5 26/26/26 7/7/7
f 25/25/25 7/7/7 26/26/26
f 25/25/25 9/9/9 7/7/7
f 23/23/23 9/9/9 25/25/25
f 23/23/23 11/11/11 9/9/9
f 37/37/37 35/35/35 36/36/36
f 37/37/37 33/33/33 35/35/35
f 32/32/32 38/38/38 31/31/31
f 39/39/39 18/40/18 20/20/20
f 29/29/29 39/39/39 20/20/20
f 30/30/30 39/39/39 29/29/29
f 30/30/30 40/41/40 39/39/39
f 31/31/31 40/41/40 30/30/30
f 31/31/31 38/38/38 40/41/40
f 38/38/38 41/42/41 40/41/40
f 40/41/40 41/42/41 42/43/42
f 41/42/41 43/44/43 42/43/42
f 42/43/42 17/45/17 18/40/18
f 39/39/39 42/43/42 18/40/18
f 40/41/40 42/43/42 39/39/39
f 42/43/42 43/44/43 17/45/17
f 43/44/43 44/46/44 17/45/17
f 17/45/17 44/46/44 16/47/16
f 43/44/43 16/47/16 44/46/44
f 45/48/45 16/47/16 43/44/43
f 41/42/41 45/48/45 43/44/43
f 46/49/46 45/48/45 41/42/41
f 38/38/38 46/49/46 41/42/41
f 47/50/47 46/49/46 38/38/38
f 32/32/32 47/50/47 38/38/38
f 48/51/48 47/50/47 32/32/32
f 32/32/32 33/33/33 48/51/48
f 49/52/49 48/51/48 33/33/33
f 49/52/49 33/33/33 37/37/37
f 50/53/50 49/52/49 37/37/37
f 50/53/50 37/37/37 36/36/36
f 50/53/50 36/36/36 4/4/4
f 4/4/4 36/36/36 5/5/5
f 48/51/48 51/54/51 47/50/47
f 45/48/45 14/55/14 16/47/16
f 46/49/46 52/56/52 45/48/45
f 52/56/52 14/55/14 45/48/45
f 52/56/52 12/57/12 14/55/14
f 47/50/47 53/58/53 46/49/46
f 53/58/53 52/56/52 46/49/46
f 53/58/53 54/59/54 52/56/52
f 54/59/54 12/57/12 52/56/52
f 54/59/54 10/60/10 12/57/12
f 55/61/55 6/6/6 56/62/56
f 55/61/55 4/4/4 6/6/6
f 57/63/57 4/4/4 55/61/55
f 57/63/57 50/53/50 4/4/4
f 58/64/58 59/65/59 60/66/60
f 60/66/60 59/65/59 61/67/61
f 62/68/62 61/67/61 59/65/59
f 61/67/61 62/68/62 63/69/63
f 62/68/62 64/70/64 63/69/63
f 63/69/63 64/70/64 65/71/65
f 64/70/64 66/72/66 65/71/65
f 66/72/66 67/73/67 65/71/65
f 66/72/66 49/52/49 67/73/67
f 50/53/50 67/73/67 49/52/49
f 68/74/68 67/73/67 50/53/50
f 68/74/68 50/53/50 57/63/57
f 69/75/69 68/74/68 57/63/57
f 69/75/69 57/63/57 55/61/55
f 69/75/69 55/61/55 70/76/70
f 70/76/70 55/61/55 56/62/56
f 70/76/70 56/62/56 71/77/71
f 72/78/72 71/77/71 56/62/56
f 62/68/62 73/79/73 64/70/64
f 64/70/64 74/80/74 66/72/66
f 73/79/73 74/80/74 64/70/64
f 73/79/73 75/81/75 74/80/74
f 76/82/76 75/81/75 73/79/73
f 66/72/66 48/51/48 49/52/49
f 66/72/66 51/54/51 48/51/48
f 74/80/74 51/54/51 66/72/66
f 74/80/74 77/83/77 51/54/51
f 75/81/75 77/83/77 74/80/74
f 75/81/75 78/84/78 77/83/77
f 76/82/76 78/84/78 75/81/75
f 76/82/76 79/85/79 78/84/78
f 3/86/3 2/87/2 76/82/76
f 79/85/79 76/82/76 2/87/2
f 2/87/2 8/88/8 79/85/79
f 79/85/79 8/88/8 10/60/10
f 79/85/79 10/60/10 54/59/54
f 78/84/78 79/85/79 54/59/54
f 78/84/78 54/59/54 53/58/53
f 77/83/77 78/84/78 53/58/53
f 77/83/77 53/58/53 47/50/47
f 80/89/80 77/83/77 47/50/47
f 51/54/51 80/89/80 47/50/47
f 72/78/72 81/90/81 82/91/82
f 72/78/72 83/92/83 71/77/71
f 72/78/72 82/91/82 83/92/83
f 84/93/84 83/92/83 82/91/82
f 84/93/84 82/91/82 58/94/58
f 85/95/85 84/93/84 58/94/58
f 85/95/85 58/94/58 86/96/86
f 86/96/86 87/97/87 85/95/85
f 86/96/86 88/98/88 87/97/87
f 87/97/87 88/98/88 89/99/89
f 90/100/90 87/97/87 89/99/89
f 90/100/90 89/99/89 91/101/91
f 91/101/91 89/99/89 92/102/92
f 91/101/91 92/102/92 93/103/93
f 93/103/93 92/102/92 94/104/94
f 95/105/95 93/103/93 94/104/94
f 96/106/96 95/105/95 94/104/94
f 95/105/95 96/106/96 97/107/97
f 96/106/96 98/108/98 97/107/97
f 95/105/95 97/107/97 99/109/99
f 95/105/95 100/110/100 93/103/93
f 101/111/101 100/110/100 95/105/95
f 99/109/99 101/111/101 95/105/95
f 99/109/99 102/112/102 101/111/101
f 99/109/99 103/113/103 102/112/102
f 97/107/97 103/113/103 99/109/99
f 97/107/97 104/114/104 103/113/103
f 97/107/97 105/115/105 104/114/104
f 104/114/104 105/115/105 106/116/106
f 107/117/107 106/116/106 105/115/105
f 108/118/108 106/116/106 107/117/107
f 109/119/109 108/118/108 107/117/107
f 101/111/101 110/120/110 100/110/100
f 85/95/85 87/97/87 90/100/90
f 110/120/110 85/95/85 90/100/90
f 110/120/110 101/111/101 85/95/85
f 101/111/101 84/93/84 85/95/85
f 101/111/101 102/112/102 84/93/84
f 102/112/102 83/92/83 84/93/84
f 102/112/102 71/77/71 83/92/83
f 103/113/103 71/77/71 102/112/102
f 103/113/103 70/76/70 71/77/71
f 104/114/104 70/76/70 103/113/103
f 104/114/104 69/75/69 70/76/70
f 104/114/104 106/116/106 69/75/69
f 69/75/69 106/116/106 68/74/68
f 108/118/108 68/74/68 106/116/106
f 108/118/108 67/73/67 68/74/68
f 108/118/108 65/71/65 67/73/67
f 63/69/63 65/71/65 108/118/108
f 109/119/109 63/69/63 108/118/108
f 61/67/61 63/69/63 109/119/109
f 97/107/97 98/108/98 105/115/105
f 111/121/111 105/115/105 98/108/98
f 107/117/107 105/115/105 111/121/111
f 112/122/112 107/117/107 111/121/111
f 112/122/112 109/119/109 107/117/107
f 113/123/113 109/119/109 112/122/112
f 113/123/113 61/67/61 109/119/109
f 60/66/60 61/67/61 113/123/113
f 114/124/114 60/66/60 113/123/113
f 86/125/86 60/66/60 114/124/114
f 114/124/114 88/126/88 86/125/86
f 114/124/114 115/127/115 88/126/88
f 89/128/89 88/126/88 115/127/115
f 116/129/116 89/128/89 115/127/115
f 117/130/117 89/128/89 116/129/116
f 117/130/117 92/131/92 89/128/89
f 118/132/118 92/131/92 117/130/117
f 118/132/118 117/130/117 119/133/119
f 86/125/86 58/64/58 60/66/60
f 120/134/120 96/106/96 94/104/94
f 120/134/120 121/135/121 96/106/96
f 96/106/96 121/135/121 98/108/98
f 122/136/122 98/108/98 121/135/121
f 111/121/111 98/108/98 122/136/122
f 123/137/123 111/121/111 122/136/122
f 123/137/123 112/122/112 111/121/111
f 124/138/124 112/122/112 123/137/123
f 124/138/124 113/123/113 112/122/112
f 114/124/114 113/123/113 124/138/124
f 125/139/125 124/138/124 123/137/123
f 123/137/123 126/140/126 125/139/125
f 123/137/123 122/136/122 126/140/126
f 122/136/122 121/135/121 126/140/126
f 118/132/118 126/140/126 121/135/121
f 118/132/118 121/135/121 120/134/120
f 118/132/118 125/139/125 126/140/126
f 118/132/118 119/133/119 125/139/125
f 125/139/125 119/133/119 127/141/127
f 125/139/125 127/141/127 124/138/124
f 128/142/128 124/138/124 127/141/127
f 128/142/128 114/124/114 124/138/124
f 128/142/128 115/127/115 114/124/114
f 116/129/116 115/127/115 128/142/128
f 129/143/129 130/144/130 131/145/131
f 129/143/129 131/145/131 132/146/132
f 131/145/131 133/147/133 132/146/132
f 131/145/131 134/148/134 133/147/133
f 132/149/132 135/150/135 136/151/136
f 132/149/132 133/152/133 135/150/135
f 135/150/135 133/152/133 134/153/134
f 135/150/135 134/153/134 137/154/137
f 137/154/137 134/153/134 131/155/131
f 137/154/137 131/155/131 136/151/136
f 135/150/135 137/154/137 136/151/136
f 132/156/132 136/157/136 138/158/138
f 139/159/139 1/160/1 140/161/140
f 140/161/140 1/160/1 3/162/3
f 140/161/140 3/162/3 81/163/81
f 140/161/140 81/163/81 141/164/141
f 142/165/142 140/161/140 141/164/141
f 142/165/142 141/164/141 143/166/143
f 144/167/144 142/165/142 143/166/143
f 144/167/144 143/166/143 145/168/145
f 138/158/138 144/167/144 145/168/145
f 138/158/138 146/169/146 144/167/144
f 138/158/138 136/157/136 146/169/146
f 146/169/146 136/157/136 147/170/147
f 131/171/131 147/170/147 136/157/136
f 147/170/147 131/171/131 130/172/130
f 148/173/148 142/165/142 144/167/144
f 146/169/146 148/173/148 144/167/144
f 146/169/146 147/170/147 148/173/148
f 149/174/149 140/161/140 142/165/142
f 148/173/148 149/174/149 142/165/142
f 150/175/150 149/174/149 148/173/148
f 150/175/150 148/173/148 147/170/147
f 150/175/150 147/170/147 151/176/151
f 147/170/147 130/172/130 151/176/151
f 151/176/151 130/172/130 129/177/129
f 151/176/151 129/177/129 152/178/152
f 152/178/152 129/177/129 132/179/132
f 152/178/152 132/179/132 138/180/138
f 152/178/152 138/180/138 145/181/145
f 152/178/152 145/181/145 153/182/153
f 145/181/145 154/183/154 153/182/153
f 153/182/153 154/183/154 155/184/155
f 154/183/154 156/185/156 155/184/155
f 155/184/155 156/185/156 139/159/139
f 156/185/156 6/186/6 139/159/139
f 139/159/139 6/186/6 1/160/1
f 149/174/149 139/159/139 140/161/140
f 155/184/155 139/159/139 149/174/149
f 150/175/150 155/184/155 149/174/149
f 153/182/153 155/184/155 150/175/150
f 153/182/153 150/175/150 151/176/151
f 153/182/153 151/176/151 152/178/152
f 145/181/145 143/187/143 154/183/154
f 143/187/143 157/188/157 154/183/154
f 154/183/154 157/188/157 156/185/156
f 143/187/143 141/189/141 157/188/157
f 156/185/156 56/190/56 6/186/6
f 157/188/157 56/190/56 156/185/156
f 157/188/157 72/191/72 56/190/56
f 141/189/141 72/191/72 157/188/157
f 141/189/141 81/192/81 72/191/72
f 158/193/158 159/194/159 160/195/160
f 158/193/158 161/196/161 159/194/159
f 161/196/161 162/197/162 159/194/159
f 161/196/161 163/198/163 162/197/162
f 160/195/160 164/199/164 165/200/165
f 160/195/160 159/194/159 164/199/164
f 159/194/159 166/201/166 164/199/164
f 159/194/159 162/197/162 166/201/166
f 163/198/163 167/202/167 168/203/168
f 163/198/163 169/204/169 167/202/167
f 170/205/170 169/204/169 163/198/163
f 170/205/170 163/198/163 161/196/161
f 171/206/171 170/205/170 161/196/161
f 171/206/171 161/196/161 158/193/158
f 94/207/94 171/206/171 158/193/158
f 94/207/94 158/193/158 160/195/160
f 94/207/94 160/195/160 120/208/120
f 120/208/120 160/195/160 165/200/165
f 120/208/120 165/200/165 118/209/118
f 165/200/165 92/210/92 118/209/118
f 165/200/165 171/211/171 92/210/92
f 165/200/165 170/212/170 171/211/171
f 165/200/165 164/199/164 170/212/170
f 164/199/164 169/213/169 170/212/170
f 164/199/164 166/201/166 169/213/169
f 172/214/172 169/213/169 166/201/166
f 94/207/94 92/215/92 171/206/171
f 162/197/162 172/214/172 166/201/166
f 162/197/162 173/216/173 172/214/172
f 163/198/163 173/216/173 162/197/162
f 163/198/163 168/203/168 173/216/173
f 168/203/168 174/217/174 173/216/173
f 168/203/168 175/218/175 174/217/174
f 175/218/175 176/219/176 174/217/174
f 177/220/177 176/219/176 175/218/175
f 167/202/167 177/220/177 175/218/175
f 167/202/167 175/218/175 168/203/168
f 178/221/178 176/219/176 177/222/177
f 174/217/174 176/219/176 178/221/178
f 173/216/173 174/217/174 178/221/178
f 173/216/173 178/221/178 172/214/172
f 172/214/172 178/221/178 177/222/177
f 172/214/172 177/222/177 167/223/167
f 172/214/172 167/223/167 169/213/169
f 179/224/179 180/225/180 181/226/181
f 182/227/182 180/225/180 179/224/179
f 179/224/179 183/228/183 184/229/184
f 185/230/185 186/231/186 184/229/184
f 179/224/179 184/229/184 186/231/186
f 179/224/179 186/231/186 187/232/187
f 182/227/182 179/224/179 187/232/187
f 182/227/182 187/232/187 188/233/188
f 182/227/182 188/233/188 189/234/189
f 188/233/188 190/235/190 189/234/189
f 187/232/187 191/236/191 188/233/188
f 187/232/187 186/231/186 191/236/191
f 186/231/186 192/237/192 191/236/191
f 186/231/186 185/230/185 192/237/192
f 185/230/185 193/238/193 192/237/192
f 185/230/185 184/229/184 194/239/194
f 185/230/185 194/239/194 180/240/180
f 185/230/185 180/240/180 182/241/182
f 185/230/185 182/241/182 189/242/189
f 185/230/185 189/242/189 193/238/193
f 189/242/189 195/243/195 193/238/193
f 192/237/192 193/238/193 195/243/195
f 192/237/192 195/243/195 196/244/196
f 191/236/191 192/237/192 196/244/196
f 191/236/191 196/244/196 197/245/197
f 188/233/188 191/236/191 197/245/197
f 188/233/188 197/245/197 198/246/198
f 188/233/188 198/246/198 190/235/190
f 199/247/199 190/235/190 198/246/198
f 199/247/199 200/248/200 190/235/190
f 199/247/199 116/249/116 200/248/200
f 199/247/199 117/250/117 116/249/116
f 119/251/119 117/250/117 199/247/199
f 201/252/201 196/244/196 202/253/202
f 201/252/201 197/245/197 196/244/196
f 201/252/201 198/246/198 197/245/197
f 201/252/201 199/247/199 198/246/198
f 119/251/119 199/247/199 201/252/201
f 127/254/127 119/251/119 201/252/201
f 127/254/127 201/252/201 202/253/202
f 203/255/203 127/254/127 202/253/202
f 196/244/196 203/255/203 202/253/202
f 196/244/196 195/243/195 203/255/203
f 200/256/200 203/255/203 195/243/195
f 200/256/200 195/243/195 190/257/190
f 189/242/189 190/257/190 195/243/195
f 203/255/203 128/258/128 127/254/127
f 200/256/200 128/258/128 203/255/203
f 200/256/200 116/259/116 128/258/128
f 204/260/204 205/261/205 206/262/206
f 207/263/207 205/261/205 204/260/204
f 208/264/208 209/265/209 210/266/210
f 206/262/206 208/264/208 210/266/210
f 206/262/206 211/267/211 208/264/208
f 206/262/206 212/268/212 211/267/211
f 206/262/206 205/261/205 212/268/212
f 212/268/212 205/261/205 213/269/213
f 207/263/207 213/269/213 205/261/205
f 207/263/207 90/270/90 213/269/213
f 207/263/207 110/271/110 90/270/90
f 207/263/207 100/272/100 110/271/110
f 208/264/208 214/273/214 209/265/209
f 212/268/212 213/269/213 215/274/215
f 213/269/213 91/275/91 215/274/215
f 213/269/213 90/270/90 91/275/91
f 216/276/216 206/262/206 210/266/210
f 204/260/204 206/262/206 216/276/216
f 217/277/217 204/260/204 216/276/216
f 207/263/207 204/260/204 217/277/217
f 207/263/207 217/277/217 218/278/218
f 207/263/207 218/278/218 100/272/100
f 218/278/218 93/279/93 100/272/100
f 218/278/218 219/280/219 93/279/93
f 215/281/215 93/279/93 219/280/219
f 220/282/220 215/281/215 219/280/219
f 220/282/220 212/283/212 215/281/215
f 211/284/211 212/283/212 220/282/220
f 211/284/211 220/282/220 221/285/221
f 211/284/211 221/285/221 222/286/222
f 221/285/221 223/287/223 222/286/222
f 222/286/222 223/287/223 224/288/224
f 209/265/209 224/288/224 223/287/223
f 209/265/209 223/287/223 210/266/210
f 221/285/221 225/289/225 223/287/223
f 225/289/225 210/266/210 223/287/223
f 225/289/225 216/276/216 210/266/210
f 217/277/217 216/276/216 225/289/225
f 220/282/220 217/277/217 225/289/225
f 217/277/217 220/282/220 219/280/219
f 217/277/217 219/280/219 218/278/218
f 220/282/220 225/289/225 221/285/221
f 215/281/215 91/290/91 93/279/93
f 211/284/211 222/286/222 208/291/208
f 222/286/222 214/292/214 208/291/208
f 222/286/222 226/293/226 214/292/214
f 222/286/222 224/288/224 226/293/226
f 224/288/224 227/294/227 226/293/226
f 228/295/228 214/292/214 226/293/226
f 51/296/51 229/297/229 230/298/230
f 51/296/51 77/299/77 229/297/229
f 229/297/229 77/299/77 231/300/231
f 77/299/77 232/301/232 231/300/231
f 232/301/232 77/299/77 233/302/233
f 77/299/77 80/303/80 233/302/233
f 80/304/80 232/305/232 233/306/233
f 232/305/232 80/304/80 231/307/231
f 80/304/80 229/308/229 231/307/231
f 229/308/229 80/304/80 230/309/230
f 230/309/230 80/304/80 51/310/51
f 234/311/234 235/312/235 236/313/236
f 235/312/235 237/314/237 236/313/236
f 236/313/236 237/314/237 238/315/238
f 236/313/236 238/315/238 239/316/239
f 239/316/239 238/315/238 240/317/240
f 239/316/239 240/317/240 241/318/241
f 242/319/242 241/318/241 240/317/240
f 241/318/241 242/319/242 243/320/243
f 244/321/244 241/318/241 243/320/243
f 244/321/244 245/322/245 241/318/241
f 244/321/244 246/323/246 245/322/245
f 245/322/245 246/323/246 247/324/247
f 246/323/246 248/325/248 247/324/247
f 247/324/247 248/325/248 249/326/249
f 247/324/247 249/326/249 250/327/250
f 251/328/251 247/324/247 250/327/250
f 251/328/251 250/327/250 234/311/234
f 236/313/236 251/328/251 234/311/234
f 236/313/236 239/316/239 251/328/251
f 239/316/239 245/322/245 251/328/251
f 239/316/239 241/318/241 245/322/245
f 245/322/245 247/324/247 251/328/251
f 235/312/235 252/329/252 237/314/237
f 235/330/235 242/319/242 252/331/252
f 243/320/243 242/319/242 235/330/235
f 253/332/253 243/320/243 235/330/235
f 253/332/253 244/321/244 243/320/243
f 253/332/253 254/333/254 244/321/244
f 244/321/244 254/333/254 246/323/246
f 254/333/254 255/334/255 246/323/246
f 246/323/246 255/334/255 248/325/248
f 255/334/255 62/335/62 248/325/248
f 248/325/248 62/335/62 256/336/256
f 248/325/248 256/336/256 249/326/249
f 249/326/249 256/336/256 81/337/81
f 249/326/249 81/337/81 257/338/257
f 250/327/250 249/326/249 257/338/257
f 250/327/250 257/338/257 258/339/258
f 234/311/234 250/327/250 258/339/258
f 234/311/234 258/339/258 253/340/253
f 234/311/234 253/340/253 235/312/235
f 255/334/255 73/341/73 62/335/62
f 259/342/259 73/341/73 255/334/255
f 254/333/254 259/342/259 255/334/255
f 258/343/258 259/342/259 254/333/254
f 253/332/253 258/343/258 254/333/254
f 259/342/259 76/344/76 73/341/73
f 3/345/3 76/344/76 259/342/259
f 257/346/257 3/345/3 259/342/259
f 258/343/258 257/346/257 259/342/259
f 257/346/257 81/347/81 3/345/3
f 252/348/252 238/349/238 237/350/237
f 252/348/252 240/351/240 238/349/238
f 252/348/252 260/352/260 240/351/240
f 252/348/252 261/353/261 260/352/260
f 262/354/262 227/355/227 263/356/263
f 226/357/226 227/355/227 262/354/262
f 228/358/228 226/357/226 262/354/262
f 264/359/264 228/358/228 262/354/262
f 264/359/264 262/354/262 263/356/263
f 265/360/265 179/361/179 181/362/181
f 265/360/265 183/363/183 179/361/179
f 266/364/266 183/363/183 265/360/265
f 266/364/266 265/360/265 267/365/267
f 265/360/265 181/362/181 267/365/267
f 268/366/268 35/367/35 33/368/33
f 268/366/268 269/369/269 35/367/35
f 270/370/270 35/367/35 269/369/269
f 270/370/270 271/371/271 35/367/35
f 272/372/272 35/367/35 271/371/271
f 272/372/272 34/373/34 35/367/35
f 62/68/62 59/65/59 256/374/256
f 59/65/59 81/375/81 256/374/256
f 59/65/59 82/376/82 81/375/81
f 58/64/58 82/376/82 59/65/59
f 242/377/242 261/378/261 252/379/252
f 242/377/242 273/380/273 261/378/261
f 242/377/242 274/381/274 273/380/273
f 274/381/274 261/378/261 273/380/273
f 274/381/274 260/382/260 261/378/261
f 242/377/242 260/382/260 274/381/274
f 242/377/242 240/383/240 260/382/260
f 272/384/272 271/385/271 34/386/34
f 270/387/270 34/386/34 271/385/271
f 270/387/270 269/388/269 34/386/34
f 268/389/268 34/386/34 269/388/269
f 33/390/33 34/386/34 268/389/268
f 275/391/275 276/392/276 277/393/277
f 267/394/267 277/393/277 276/392/276
f 267/394/267 276/392/276 266/395/266
f 183/396/183 266/395/266 276/392/276
f 183/396/183 276/392/276 275/391/275
f 183/396/183 275/391/275 184/397/184
f 275/391/275 194/398/194 184/397/184
f 275/391/275 180/399/180 194/398/194
f 275/391/275 181/400/181 180/399/180
f 275/391/275 267/394/267 181/400/181
f 275/391/275 277/393/277 267/394/267
f 228/401/228 264/402/264 278/403/278
f 263/404/263 278/403/278 264/402/264
f 263/404/263 279/405/279 278/403/278
f 280/406/280 279/405/279 263/404/263
f 278/403/278 279/405/279 280/406/280
f 228/401/228 278/403/278 280/406/280
f 214/407/214 228/401/228 280/406/280
f 209/408/209 214/407/214 280/406/280
f 224/409/224 209/408/209 280/406/280
f 224/409/224 280/406/280 227/410/227
f 280/406/280 263/404/263 227/410/227
